# xmcd CD database file
#
# Track frame offsets:
#	197
#	9062
#	12422
#	27205
#	44512
#	57720
#	77737
#	81300
#	93790
#	116812
#	124670
#	140850
#	152312
#	155852
#
# Disc length: 2291 seconds
#
# Revision: 0
# Processed by: cddbd v1.5.1PL2 Copyright (c) Steve Scherf et al.
# Submitted via: CDex 1.51
#
DISCID=b108f10e
DTITLE=Michael Andrew - Overnight Success
DYEAR=1993
DGENRE=Jazz
TTITLE0=We've Got A World That Swings
TTITLE1=after the show
TTITLE2=Overnight Success
TTITLE3=Could It Be?
TTITLE4=What Did I Say?
TTITLE5=Stella By Starlight
TTITLE6=the piano bar
TTITLE7=That's Louise
TTITLE8=How Can I Explain?
TTITLE9=You'd Be So Nice To Come Home To
TTITLE10=Nancy
TTITLE11=The Jet Set
TTITLE12=the house party
TTITLE13=I Guess I'm A Little Out Of Date
EXTD=YEAR: 1993
EXTT0=
EXTT1=
EXTT2=
EXTT3=
EXTT4=
EXTT5=
EXTT6=
EXTT7=
EXTT8=
EXTT9=
EXTT10=
EXTT11=
EXTT12=
EXTT13=
PLAYORDER=
